<svg width="100" height="100" viewBox="0 0 100 100" fill="none" xmlns="http://www.w3.org/2000/svg">
<path d="M32.125 16.5L21.875 26.7593L17.875 22.7593L13.375 27.25L19.625 33.5L21.875 35.6437L24.125 33.4968L36.625 20.9968L32.125 16.4968V16.5ZM46.875 21.875V28.125H87.5V21.875H46.875ZM32.125 41.5L21.875 51.7625L17.875 47.75L13.375 52.25L19.625 58.5L21.875 60.6437L24.125 58.4968L36.625 45.9968L32.125 41.4968V41.5ZM46.875 46.875V53.125H87.5V46.875H46.875ZM32.125 66.5L21.875 76.7593L17.875 72.7593L13.375 77.25L19.625 83.5L21.875 85.6437L24.125 83.4968L36.625 70.9968L32.125 66.4968V66.5ZM46.875 71.875V78.125H87.5V71.875H46.875Z" fill="#406973"/>
</svg>
