<svg width="256" height="256" viewBox="0 0 256 256" fill="none" xmlns="http://www.w3.org/2000/svg">
<path d="M222 48V76C222 77.5913 221.368 79.1174 220.243 80.2426C219.117 81.3679 217.591 82 216 82C214.409 82 212.883 81.3679 211.757 80.2426C210.632 79.1174 210 77.5913 210 76V48C210 47.4696 209.789 46.9609 209.414 46.5858C209.039 46.2107 208.53 46 208 46H180C178.409 46 176.883 45.3679 175.757 44.2426C174.632 43.1174 174 41.5913 174 40C174 38.4087 174.632 36.8826 175.757 35.7574C176.883 34.6321 178.409 34 180 34H208C211.713 34 215.274 35.475 217.899 38.1005C220.525 40.726 222 44.287 222 48ZM216 174C214.409 174 212.883 174.632 211.757 175.757C210.632 176.883 210 178.409 210 180V208C210 208.53 209.789 209.039 209.414 209.414C209.039 209.789 208.53 210 208 210H180C178.409 210 176.883 210.632 175.757 211.757C174.632 212.883 174 214.409 174 216C174 217.591 174.632 219.117 175.757 220.243C176.883 221.368 178.409 222 180 222H208C211.713 222 215.274 220.525 217.899 217.899C220.525 215.274 222 211.713 222 208V180C222 178.409 221.368 176.883 220.243 175.757C219.117 174.632 217.591 174 216 174ZM76 210H48C47.4696 210 46.9609 209.789 46.5858 209.414C46.2107 209.039 46 208.53 46 208V180C46 178.409 45.3679 176.883 44.2426 175.757C43.1174 174.632 41.5913 174 40 174C38.4087 174 36.8826 174.632 35.7574 175.757C34.6321 176.883 34 178.409 34 180V208C34 211.713 35.475 215.274 38.1005 217.899C40.726 220.525 44.287 222 48 222H76C77.5913 222 79.1174 221.368 80.2426 220.243C81.3679 219.117 82 217.591 82 216C82 214.409 81.3679 212.883 80.2426 211.757C79.1174 210.632 77.5913 210 76 210ZM40 82C41.5913 82 43.1174 81.3679 44.2426 80.2426C45.3679 79.1174 46 77.5913 46 76V48C46 47.4696 46.2107 46.9609 46.5858 46.5858C46.9609 46.2107 47.4696 46 48 46H76C77.5913 46 79.1174 45.3679 80.2426 44.2426C81.3679 43.1174 82 41.5913 82 40C82 38.4087 81.3679 36.8826 80.2426 35.7574C79.1174 34.6321 77.5913 34 76 34H48C44.287 34 40.726 35.475 38.1005 38.1005C35.475 40.726 34 44.287 34 48V76C34 77.5913 34.6321 79.1174 35.7574 80.2426C36.8826 81.3679 38.4087 82 40 82ZM175.8 178.8C171.197 170.116 164.315 162.85 155.893 157.782C147.472 152.715 137.829 150.037 128 150.037C118.171 150.037 108.528 152.715 100.107 157.782C91.6851 162.85 84.8032 170.116 80.2 178.8C79.4562 180.205 78.1856 181.257 76.6671 181.725C75.1485 182.194 73.5059 182.041 72.1 181.3C70.7146 180.537 69.6795 179.266 69.2131 177.755C68.7467 176.244 68.8854 174.611 69.6 173.2C77.1437 158.869 89.7147 147.829 104.9 142.2C98.5928 137.371 93.9574 130.687 91.6453 123.088C89.3332 115.488 89.4608 107.356 92.01 99.8323C94.5592 92.309 99.4019 85.7738 105.857 81.1452C112.313 76.5166 120.057 74.0273 128 74.0273C135.943 74.0273 143.687 76.5166 150.143 81.1452C156.598 85.7738 161.441 92.309 163.99 99.8323C166.539 107.356 166.667 115.488 164.355 123.088C162.043 130.687 157.407 137.371 151.1 142.2C166.285 147.829 178.856 158.869 186.4 173.2C187.115 174.611 187.253 176.244 186.787 177.755C186.32 179.266 185.285 180.537 183.9 181.3C183.041 181.766 182.077 182.006 181.1 182C180.009 181.999 178.939 181.7 178.005 181.136C177.072 180.573 176.309 179.765 175.8 178.8ZM128 138C133.142 138 138.169 136.475 142.445 133.618C146.721 130.761 150.053 126.701 152.021 121.95C153.989 117.199 154.504 111.971 153.5 106.928C152.497 101.884 150.021 97.2514 146.385 93.6152C142.749 89.9791 138.116 87.5028 133.072 86.4996C128.029 85.4964 122.801 86.0113 118.05 87.9791C113.299 89.947 109.239 93.2795 106.382 97.5552C103.525 101.831 102 106.858 102 112C102.026 118.888 104.774 125.485 109.644 130.356C114.515 135.226 121.112 137.974 128 138Z" fill="#406973"/>
</svg>
